<svg width="60" height="60" viewBox="0 0 60 60" fill="none" xmlns="http://www.w3.org/2000/svg">
<path d="M6.00049 53.9998C6.00049 50.8481 6.62126 47.7272 7.82737 44.8154C9.03349 41.9036 10.8013 39.2579 13.0299 37.0292C15.2585 34.8006 17.9043 33.0328 20.8161 31.8267C23.7279 30.6206 26.8487 29.9998 30.0005 29.9998V53.9998L6.00049 53.9998Z" fill="#1A1A1A"/>
<path d="M30.0005 29.9998C30.0005 33.1515 30.6213 36.2724 31.8274 39.1842C33.0335 42.096 34.8013 44.7418 37.0299 46.9704C39.2585 49.199 41.9043 50.9668 44.8161 52.1729C47.7279 53.379 50.8487 53.9998 54.0005 53.9998L54.0005 29.9998L30.0005 29.9998Z" fill="#FFD400"/>
<path d="M30.0005 29.9998C30.0005 26.8481 29.3797 23.7272 28.1736 20.8154C26.9675 17.9036 25.1996 15.2578 22.971 13.0292C20.7424 10.8006 18.0967 9.03282 15.1849 7.82671C12.2731 6.62059 9.15221 5.99982 6.00049 5.99982L6.00049 29.9998H30.0005Z" fill="#FFD400"/>
<path d="M54.0005 5.99988C54.0005 9.1516 53.3797 12.2725 52.1736 15.1843C50.9675 18.0961 49.1996 20.7418 46.971 22.9704C44.7424 25.199 42.0967 26.9668 39.1849 28.173C36.2731 29.3791 33.1522 29.9998 30.0005 29.9998L30.0005 5.99988H54.0005Z" fill="#1A1A1A"/>
</svg>
