<svg id="visual" viewBox="0 0 900 600" width="900" height="600" xmlns="http://www.w3.org/2000/svg" xmlns:xlink="http://www.w3.org/1999/xlink" version="1.1"><rect x="0" y="0" width="900" height="600" fill="#001220"></rect><defs><linearGradient id="grad1_0" x1="33.3%" y1="0%" x2="100%" y2="100%"><stop offset="20%" stop-color="#001220" stop-opacity="1"></stop><stop offset="80%" stop-color="#001220" stop-opacity="1"></stop></linearGradient></defs><defs><linearGradient id="grad2_0" x1="0%" y1="0%" x2="66.7%" y2="100%"><stop offset="20%" stop-color="#001220" stop-opacity="1"></stop><stop offset="80%" stop-color="#001220" stop-opacity="1"></stop></linearGradient></defs><g transform="translate(900, 0)"><path d="M0 486.7C-70 486.1 -140.1 485.4 -186.3 449.7C-232.5 414 -254.8 343.1 -295.6 295.6C-336.4 248 -395.6 223.7 -430.5 178.3C-465.5 132.9 -476.1 66.5 -486.7 0L0 0Z" fill="#FBAE3C"></path></g><g transform="translate(0, 600)"><path d="M0 -486.7C46.8 -443 93.5 -399.2 158.8 -383.4C224.1 -367.6 307.9 -379.9 344.2 -344.2C380.5 -308.5 369.4 -224.9 385.3 -159.6C401.1 -94.2 443.9 -47.1 486.7 0L0 0Z" fill="#FBAE3C"></path></g></svg>