<svg id="visual" viewBox="0 0 900 600" width="900" height="600" xmlns="http://www.w3.org/2000/svg" xmlns:xlink="http://www.w3.org/1999/xlink" version="1.1"><rect x="0" y="0" width="900" height="600" fill="#001220"></rect><defs><linearGradient id="grad1_0" x1="33.3%" y1="0%" x2="100%" y2="100%"><stop offset="20%" stop-color="#001220" stop-opacity="1"></stop><stop offset="80%" stop-color="#001220" stop-opacity="1"></stop></linearGradient></defs><defs><linearGradient id="grad2_0" x1="0%" y1="0%" x2="66.7%" y2="100%"><stop offset="20%" stop-color="#001220" stop-opacity="1"></stop><stop offset="80%" stop-color="#001220" stop-opacity="1"></stop></linearGradient></defs><g transform="translate(900, 0)"><path d="M0 486.7C-56.6 468 -113.3 449.2 -178.3 430.5C-243.4 411.9 -316.9 393.4 -344.2 344.2C-371.5 295 -352.6 215.2 -368.6 152.7C-384.7 90.2 -435.7 45.1 -486.7 0L0 0Z" fill="#FBAE3C"></path></g><g transform="translate(0, 600)"><path d="M0 -486.7C62.6 -469.3 125.2 -451.9 174.5 -421.3C223.8 -390.6 259.8 -346.8 308.3 -308.3C356.8 -269.8 417.9 -236.8 449.7 -186.3C481.5 -135.8 484.1 -67.9 486.7 0L0 0Z" fill="#FBAE3C"></path></g></svg>