<svg id="visual" viewBox="0 0 900 600" width="900" height="600" xmlns="http://www.w3.org/2000/svg" xmlns:xlink="http://www.w3.org/1999/xlink" version="1.1"><rect x="0" y="0" width="900" height="600" fill="#001220"></rect><path d="M0 428L16.7 422.8C33.3 417.7 66.7 407.3 100 401.7C133.3 396 166.7 395 200 401.2C233.3 407.3 266.7 420.7 300 419C333.3 417.3 366.7 400.7 400 393C433.3 385.3 466.7 386.7 500 390.5C533.3 394.3 566.7 400.7 600 396C633.3 391.3 666.7 375.7 700 370.5C733.3 365.3 766.7 370.7 800 381.8C833.3 393 866.7 410 883.3 418.5L900 427L900 601L883.3 601C866.7 601 833.3 601 800 601C766.7 601 733.3 601 700 601C666.7 601 633.3 601 600 601C566.7 601 533.3 601 500 601C466.7 601 433.3 601 400 601C366.7 601 333.3 601 300 601C266.7 601 233.3 601 200 601C166.7 601 133.3 601 100 601C66.7 601 33.3 601 16.7 601L0 601Z" fill="#fa7268"></path><path d="M0 466L16.7 461.5C33.3 457 66.7 448 100 437C133.3 426 166.7 413 200 409.2C233.3 405.3 266.7 410.7 300 423.8C333.3 437 366.7 458 400 455.8C433.3 453.7 466.7 428.3 500 422.8C533.3 417.3 566.7 431.7 600 435.5C633.3 439.3 666.7 432.7 700 437.3C733.3 442 766.7 458 800 459.7C833.3 461.3 866.7 448.7 883.3 442.3L900 436L900 601L883.3 601C866.7 601 833.3 601 800 601C766.7 601 733.3 601 700 601C666.7 601 633.3 601 600 601C566.7 601 533.3 601 500 601C466.7 601 433.3 601 400 601C366.7 601 333.3 601 300 601C266.7 601 233.3 601 200 601C166.7 601 133.3 601 100 601C66.7 601 33.3 601 16.7 601L0 601Z" fill="#ef5f67"></path><path d="M0 463L16.7 460.8C33.3 458.7 66.7 454.3 100 451.8C133.3 449.3 166.7 448.7 200 452.5C233.3 456.3 266.7 464.7 300 473.5C333.3 482.3 366.7 491.7 400 493.8C433.3 496 466.7 491 500 492.3C533.3 493.7 566.7 501.3 600 499.5C633.3 497.7 666.7 486.3 700 480C733.3 473.7 766.7 472.3 800 477.7C833.3 483 866.7 495 883.3 501L900 507L900 601L883.3 601C866.7 601 833.3 601 800 601C766.7 601 733.3 601 700 601C666.7 601 633.3 601 600 601C566.7 601 533.3 601 500 601C466.7 601 433.3 601 400 601C366.7 601 333.3 601 300 601C266.7 601 233.3 601 200 601C166.7 601 133.3 601 100 601C66.7 601 33.3 601 16.7 601L0 601Z" fill="#e34c67"></path><path d="M0 499L16.7 499.5C33.3 500 66.7 501 100 503.2C133.3 505.3 166.7 508.7 200 510.7C233.3 512.7 266.7 513.3 300 515.5C333.3 517.7 366.7 521.3 400 519.7C433.3 518 466.7 511 500 505.7C533.3 500.3 566.7 496.7 600 498.5C633.3 500.3 666.7 507.7 700 513.5C733.3 519.3 766.7 523.7 800 518.8C833.3 514 866.7 500 883.3 493L900 486L900 601L883.3 601C866.7 601 833.3 601 800 601C766.7 601 733.3 601 700 601C666.7 601 633.3 601 600 601C566.7 601 533.3 601 500 601C466.7 601 433.3 601 400 601C366.7 601 333.3 601 300 601C266.7 601 233.3 601 200 601C166.7 601 133.3 601 100 601C66.7 601 33.3 601 16.7 601L0 601Z" fill="#d53867"></path><path d="M0 567L16.7 563.2C33.3 559.3 66.7 551.7 100 545.5C133.3 539.3 166.7 534.7 200 535C233.3 535.3 266.7 540.7 300 545.3C333.3 550 366.7 554 400 556.2C433.3 558.3 466.7 558.7 500 557.8C533.3 557 566.7 555 600 551.8C633.3 548.7 666.7 544.3 700 541C733.3 537.7 766.7 535.3 800 533C833.3 530.7 866.7 528.3 883.3 527.2L900 526L900 601L883.3 601C866.7 601 833.3 601 800 601C766.7 601 733.3 601 700 601C666.7 601 633.3 601 600 601C566.7 601 533.3 601 500 601C466.7 601 433.3 601 400 601C366.7 601 333.3 601 300 601C266.7 601 233.3 601 200 601C166.7 601 133.3 601 100 601C66.7 601 33.3 601 16.7 601L0 601Z" fill="#c62368"></path></svg>