<svg id="visual" viewBox="0 0 900 600" width="900" height="600" xmlns="http://www.w3.org/2000/svg" xmlns:xlink="http://www.w3.org/1999/xlink" version="1.1"><path d="M0 493L16.7 493.5C33.3 494 66.7 495 100 488.7C133.3 482.3 166.7 468.7 200 468.3C233.3 468 266.7 481 300 478.3C333.3 475.7 366.7 457.3 400 453.7C433.3 450 466.7 461 500 468C533.3 475 566.7 478 600 476.5C633.3 475 666.7 469 700 464.2C733.3 459.3 766.7 455.7 800 452.2C833.3 448.7 866.7 445.3 883.3 443.7L900 442L900 601L883.3 601C866.7 601 833.3 601 800 601C766.7 601 733.3 601 700 601C666.7 601 633.3 601 600 601C566.7 601 533.3 601 500 601C466.7 601 433.3 601 400 601C366.7 601 333.3 601 300 601C266.7 601 233.3 601 200 601C166.7 601 133.3 601 100 601C66.7 601 33.3 601 16.7 601L0 601Z" fill="#495057"></path><path d="M0 521L16.7 520.7C33.3 520.3 66.7 519.7 100 521.5C133.3 523.3 166.7 527.7 200 525.7C233.3 523.7 266.7 515.3 300 513C333.3 510.7 366.7 514.3 400 510.3C433.3 506.3 466.7 494.7 500 495.8C533.3 497 566.7 511 600 515C633.3 519 666.7 513 700 508.5C733.3 504 766.7 501 800 498.8C833.3 496.7 866.7 495.3 883.3 494.7L900 494L900 601L883.3 601C866.7 601 833.3 601 800 601C766.7 601 733.3 601 700 601C666.7 601 633.3 601 600 601C566.7 601 533.3 601 500 601C466.7 601 433.3 601 400 601C366.7 601 333.3 601 300 601C266.7 601 233.3 601 200 601C166.7 601 133.3 601 100 601C66.7 601 33.3 601 16.7 601L0 601Z" fill="#343a40"></path><path d="M0 527L16.7 528.8C33.3 530.7 66.7 534.3 100 537.2C133.3 540 166.7 542 200 545.3C233.3 548.7 266.7 553.3 300 557.2C333.3 561 366.7 564 400 564.5C433.3 565 466.7 563 500 558.7C533.3 554.3 566.7 547.7 600 541.7C633.3 535.7 666.7 530.3 700 532.3C733.3 534.3 766.7 543.7 800 546C833.3 548.3 866.7 543.7 883.3 541.3L900 539L900 601L883.3 601C866.7 601 833.3 601 800 601C766.7 601 733.3 601 700 601C666.7 601 633.3 601 600 601C566.7 601 533.3 601 500 601C466.7 601 433.3 601 400 601C366.7 601 333.3 601 300 601C266.7 601 233.3 601 200 601C166.7 601 133.3 601 100 601C66.7 601 33.3 601 16.7 601L0 601Z" fill="#212529"></path></svg>