<svg id="visual" viewBox="0 0 900 600" width="900" height="600" xmlns="http://www.w3.org/2000/svg" xmlns:xlink="http://www.w3.org/1999/xlink" version="1.1"><rect x="0" y="0" width="900" height="600" fill="#002233"></rect><path d="M0 469L16.7 467.8C33.3 466.7 66.7 464.3 100 457.7C133.3 451 166.7 440 200 448.7C233.3 457.3 266.7 485.7 300 477.5C333.3 469.3 366.7 424.7 400 411.3C433.3 398 466.7 416 500 425.2C533.3 434.3 566.7 434.7 600 434.3C633.3 434 666.7 433 700 431.2C733.3 429.3 766.7 426.7 800 424C833.3 421.3 866.7 418.7 883.3 417.3L900 416L900 601L883.3 601C866.7 601 833.3 601 800 601C766.7 601 733.3 601 700 601C666.7 601 633.3 601 600 601C566.7 601 533.3 601 500 601C466.7 601 433.3 601 400 601C366.7 601 333.3 601 300 601C266.7 601 233.3 601 200 601C166.7 601 133.3 601 100 601C66.7 601 33.3 601 16.7 601L0 601Z" fill="#0066FF" stroke-linecap="round" stroke-linejoin="miter"></path></svg>