<svg id="visual" viewBox="0 0 900 600" width="900" height="600" xmlns="http://www.w3.org/2000/svg" xmlns:xlink="http://www.w3.org/1999/xlink" version="1.1"><path d="M0 366L16.7 370.5C33.3 375 66.7 384 100 393.5C133.3 403 166.7 413 200 414.2C233.3 415.3 266.7 407.7 300 397.2C333.3 386.7 366.7 373.3 400 378.5C433.3 383.7 466.7 407.3 500 414.7C533.3 422 566.7 413 600 410.7C633.3 408.3 666.7 412.7 700 407.5C733.3 402.3 766.7 387.7 800 390C833.3 392.3 866.7 411.7 883.3 421.3L900 431L900 601L883.3 601C866.7 601 833.3 601 800 601C766.7 601 733.3 601 700 601C666.7 601 633.3 601 600 601C566.7 601 533.3 601 500 601C466.7 601 433.3 601 400 601C366.7 601 333.3 601 300 601C266.7 601 233.3 601 200 601C166.7 601 133.3 601 100 601C66.7 601 33.3 601 16.7 601L0 601Z" fill="#adb5bd"></path><path d="M0 478L16.7 478.2C33.3 478.3 66.7 478.7 100 469C133.3 459.3 166.7 439.7 200 430.3C233.3 421 266.7 422 300 421.3C333.3 420.7 366.7 418.3 400 424.5C433.3 430.7 466.7 445.3 500 454.7C533.3 464 566.7 468 600 457.7C633.3 447.3 666.7 422.7 700 419C733.3 415.3 766.7 432.7 800 435.5C833.3 438.3 866.7 426.7 883.3 420.8L900 415L900 601L883.3 601C866.7 601 833.3 601 800 601C766.7 601 733.3 601 700 601C666.7 601 633.3 601 600 601C566.7 601 533.3 601 500 601C466.7 601 433.3 601 400 601C366.7 601 333.3 601 300 601C266.7 601 233.3 601 200 601C166.7 601 133.3 601 100 601C66.7 601 33.3 601 16.7 601L0 601Z" fill="#6c757d"></path></svg>